<svg version="1.2" xmlns="http://www.w3.org/2000/svg" viewBox="0 0 32 40" width="32" height="40">
	<title>logo</title>
	<style>
		.s0 { fill: #ffffff } 
		.s1 { fill: #03a9f4 } 
		.s2 { fill: #2962ff } 
	</style>
	<path class="s0" d="m48.5 26.4q1.4 0 2.1-0.4 0.7-0.3 0.7-1.2 0-0.8-0.8-1.3-0.7-0.5-2.3-1.1-1-0.4-1.9-0.8-0.8-0.4-1.4-1-0.6-0.5-1-1.3-0.3-0.8-0.3-1.9 0-2.2 1.6-3.4 1.6-1.3 4.4-1.3 1.4 0 2.7 0.3 1.2 0.2 1.9 0.4l-0.7 3q-0.6-0.2-1.5-0.5-1-0.2-2.2-0.2-1.2 0-1.9 0.4-0.7 0.4-0.7 1.2 0 0.3 0.2 0.7 0.1 0.3 0.4 0.5 0.4 0.3 0.9 0.5 0.6 0.3 1.4 0.6 1.3 0.5 2.2 0.9 0.9 0.5 1.5 1.1 0.6 0.6 0.9 1.3 0.2 0.8 0.2 1.9 0 2.3-1.7 3.4-1.6 1.2-4.8 1.2-2.1 0-3.4-0.4-1.2-0.3-1.7-0.5l0.6-3.1q0.8 0.3 1.9 0.6 1.2 0.4 2.7 0.4zm9.7-17.5l3.7-0.6v4.8h5.6v3.1h-5.6v6.4q0 2 0.6 2.8 0.6 0.8 2.1 0.8 1 0 1.7-0.2 0.8-0.2 1.3-0.4l0.6 2.9q-0.7 0.3-1.7 0.6-1 0.3-2.4 0.3-1.7 0-2.9-0.5-1.1-0.4-1.8-1.3-0.7-0.9-0.9-2.1-0.3-1.2-0.3-2.8zm18.2 3.8q1.8 0 3.1 0.4 1.2 0.5 2 1.3 0.7 0.8 1 2 0.4 1.2 0.4 2.6v9.6q-0.9 0.2-2.6 0.4-1.7 0.3-3.9 0.3-1.4 0-2.6-0.3-1.2-0.2-2.1-0.8-0.8-0.6-1.3-1.6-0.4-1-0.4-2.4 0-1.4 0.5-2.3 0.5-1 1.5-1.6 0.9-0.6 2.1-0.8 1.2-0.3 2.5-0.3 0.6 0 1.3 0.1 0.6 0.1 1.4 0.3v-0.7q0-0.6-0.2-1.2-0.1-0.6-0.5-1-0.4-0.4-1-0.7-0.6-0.2-1.6-0.2-1.2 0-2.3 0.2-1.1 0.1-1.7 0.4l-0.5-3q0.7-0.2 2-0.5 1.4-0.2 2.9-0.2zm0.3 13.7q1.7 0 2.6-0.2v-4.1q-0.3-0.1-0.9-0.1-0.6-0.1-1.3-0.1-0.6 0-1.2 0.1-0.6 0-1.1 0.3-0.5 0.2-0.8 0.7-0.3 0.4-0.3 1.1 0 1.3 0.8 1.8 0.8 0.5 2.2 0.5zm9.8-5.4q0-1.7 0.5-3.2 0.6-1.6 1.6-2.7 1-1.1 2.5-1.8 1.4-0.6 3.3-0.6 2.2 0 4.2 0.8l-0.8 3q-0.6-0.3-1.4-0.4-0.8-0.2-1.7-0.2-2.2 0-3.3 1.3-1.1 1.4-1.1 3.8 0 2.4 1 3.8 1.1 1.4 3.6 1.4 1 0 1.9-0.2 0.9-0.2 1.6-0.5l0.5 3.1q-0.6 0.3-1.9 0.5-1.2 0.3-2.5 0.3-2.1 0-3.6-0.6-1.5-0.7-2.5-1.8-0.9-1.1-1.4-2.6-0.5-1.6-0.5-3.4zm18.9-1.7q0.7-0.8 1.5-1.6 0.8-0.8 1.6-1.6 0.7-0.9 1.4-1.7 0.7-0.8 1.2-1.3h4.3q-1.5 1.7-3.2 3.5-1.7 1.8-3.4 3.6 0.9 0.7 1.9 1.8 1 1.1 2 2.3 0.9 1.2 1.7 2.4 0.9 1.3 1.4 2.3h-4.2q-0.6-1-1.3-2-0.7-1-1.5-2-0.9-1-1.7-1.8-0.9-0.9-1.7-1.5v7.3h-3.7v-23l3.7-0.6zm26.6 4q0 1.3-0.5 2.5-0.4 1.1-1.4 1.9-0.9 0.8-2.2 1.3-1.4 0.4-3.1 0.4-2.1 0-3.5-0.5-1.4-0.6-2.2-1.5-0.8-0.9-1.2-1.9-0.3-1-0.3-1.9 0-1 0.2-1.7 0.3-0.8 0.8-1.4 0.4-0.7 1-1.3 0.6-0.5 1.2-0.9-1.4-1-2.1-2.1-0.6-1.2-0.6-2.8 0-1.2 0.4-2.3 0.5-1.1 1.4-1.9 0.9-0.8 2.1-1.3 1.3-0.5 2.8-0.5 1.8 0 3 0.5 1.3 0.5 2.1 1.4 0.8 0.8 1.2 1.8 0.4 1 0.4 1.9 0 1.7-1 3-0.9 1.3-2.1 2.1 1.8 0.9 2.7 2.2 0.9 1.3 0.9 3zm-10.8 0.2q0 0.5 0.2 1 0.2 0.5 0.6 0.9 0.4 0.4 1.1 0.7 0.7 0.3 1.7 0.3 0.9 0 1.6-0.2 0.6-0.3 1.1-0.7 0.4-0.4 0.6-0.9 0.2-0.6 0.2-1.1 0-0.9-0.3-1.5-0.3-0.6-1-1.1-0.6-0.5-1.5-0.8-0.8-0.4-1.8-0.6-1.1 0.7-1.8 1.7-0.7 0.9-0.7 2.3zm6.7-10.4q0-0.4-0.2-0.9-0.2-0.5-0.6-0.8-0.3-0.4-0.9-0.7-0.6-0.3-1.4-0.3-0.8 0-1.4 0.3-0.6 0.2-1 0.7-0.4 0.3-0.5 0.8-0.2 0.5-0.2 0.9 0 1.2 0.8 2.2 0.9 1.1 3 1.7 1.1-0.7 1.7-1.6 0.7-0.9 0.7-2.3zm11.9 13.2q1.4 0 2.1-0.3 0.7-0.4 0.7-1.2 0-0.8-0.8-1.3-0.7-0.5-2.3-1.2-1-0.3-1.9-0.7-0.8-0.4-1.4-1-0.6-0.5-1-1.3-0.3-0.8-0.3-1.9 0-2.2 1.6-3.5 1.6-1.2 4.4-1.2 1.4 0 2.7 0.2 1.3 0.3 1.9 0.5l-0.7 3q-0.6-0.3-1.5-0.5-1-0.2-2.2-0.2-1.1 0-1.8 0.4-0.7 0.3-0.7 1.1 0 0.4 0.1 0.7 0.1 0.3 0.5 0.6 0.3 0.3 0.9 0.5 0.5 0.3 1.3 0.5 1.3 0.5 2.2 1 0.9 0.5 1.5 1.1 0.6 0.6 0.9 1.3 0.3 0.8 0.3 1.8 0 2.3-1.7 3.5-1.7 1.2-4.9 1.2-2.1 0-3.3-0.4-1.3-0.3-1.8-0.5l0.6-3.1q0.8 0.3 2 0.6 1.1 0.3 2.6 0.3z"/>
	<path class="s1" d="m0 11.3v10.1l11-5.1z"/>
	<path class="s1" d="m31.6 22.2v9.6l-10-4.8z"/>
	<path class="s1" d="m0 21.4l17.6-8.1 4.5 2.4 9.5 6.5-15.8 7.7z"/>
	<path class="s2" d="m0 11.3l16-7.5 15.6 7.5-15.8 7.3z"/>
	<path class="s2" d="m0 31.8l16-7.5 15.6 7.5-15.8 7.3z"/>
</svg>